<?xml version="1.0" encoding="utf-8"?>
<!-- Generator: Adobe Illustrator 16.0.0, SVG Export Plug-In . SVG Version: 6.00 Build 0)  -->
<!DOCTYPE svg PUBLIC "-//W3C//DTD SVG 1.1//EN" "http://www.w3.org/Graphics/SVG/1.1/DTD/svg11.dtd">
<svg version="1.1" xmlns="http://www.w3.org/2000/svg" xmlns:xlink="http://www.w3.org/1999/xlink" x="0px" y="0px" width="734px"
	 height="175px" viewBox="0 0 734 175" enable-background="new 0 0 734 175" xml:space="preserve">
<g id="background">
	<path d="M152.458,87.666c0,35.349-28.663,64-64,64c-35.348,0-64-28.651-64-64c0-35.344,28.652-64,64-64
		C123.795,23.666,152.458,52.322,152.458,87.666z"/>
	<path fill="#D5D5C0" d="M150.569,87.666c0,34.305-27.815,62.11-62.111,62.11c-34.304,0-62.111-27.805-62.111-62.11
		c0-34.301,27.807-62.111,62.111-62.111C122.753,25.555,150.569,53.365,150.569,87.666z"/>
</g>
<g id="logo">
	<path fill="#D5D5C0" d="M90.677,31.531c2.521-1.652,0.171-7.901-1.95-9.235c-2.135-1.334-3.559,0.083-6.224,0.173
		c-2.979,0.099-4.707-0.799-7.287,1.243c-1.924,1.528-2.883,6.833-0.979,7.819C79.577,34.287,86.501,34.287,90.677,31.531z"/>
	<path fill="#D5D5C0" d="M91.212,125.44c-20.727-4.53-46.088-2.016-46.917,4.524c-0.709,5.685,0.347,16.082,35.463,24.351
		c33.581,7.902,49.75,1.948,53.84-6.048C137.674,140.27,112.806,130.141,91.212,125.44z"/>
	<path d="M74.542,34.184c4.083-0.909,8.012-3.906,12.338-3.07c-1.826,0.705-4.15,1.008-6.122,1.588
		C78.849,33.29,76.469,34.305,74.542,34.184z"/>
	<path d="M89.271,30.821c1.876,0.27,5.073,2.531,6.065,5.263c-1.194-1.658-3.926-4.462-6.065-4.387
		C89.271,31.42,89.271,30.821,89.271,30.821z"/>
	<path d="M84.091,77.008c-0.75-0.422-1.664-0.211-2.052,0.475c-0.388,0.686-0.094,1.581,0.655,2.002
		c0.75,0.421,1.673,0.211,2.052-0.474C85.134,78.325,84.841,77.43,84.091,77.008z M83.676,78.786
		c-0.217,0.167-0.591,0.039-0.846-0.287c-0.255-0.32-0.281-0.721-0.074-0.887c0.217-0.167,0.591-0.039,0.846,0.282
		C83.856,78.218,83.886,78.615,83.676,78.786z"/>
	<path d="M87.461,88.954c-0.75,0-1.357,0.639-1.357,1.42c0,0.796,0.606,1.423,1.357,1.423c0.745,0,1.351-0.627,1.351-1.423
		C88.813,89.593,88.206,88.954,87.461,88.954z M87.401,91.13c-0.45,0-0.808-0.324-0.808-0.733c0-0.403,0.358-0.734,0.808-0.734
		c0.431,0,0.789,0.331,0.789,0.734C88.189,90.806,87.832,91.13,87.401,91.13z"/>
	<path d="M88.592,106.233c-0.907,0-1.644,0.677-1.644,1.51c0,0.835,0.737,1.51,1.644,1.51c0.908,0,1.644-0.674,1.644-1.51
		C90.236,106.911,89.5,106.233,88.592,106.233z M88.592,108.639c-0.663,0-1.191-0.442-1.191-0.981c0-0.535,0.529-0.979,1.191-0.979
		s1.198,0.444,1.198,0.979C89.791,108.197,89.255,108.639,88.592,108.639z"/>
	<path d="M108.196,97.128c-0.243-2.653-0.122-5.594-2.791-8.263c1.335-3.597-5.796-9.263-8.529-10.994
		c0.135-2,0.734-6.199-1.4-7.271c-0.198,1.003-0.331,1.47-1.131,2.539c-0.801-0.135-1.797,0-3.398,0
		c-4.799-3.208-14.472-6.932-16.586-7.067c-0.817-0.049-0.806,0.6-0.806,1.003c-1.999-0.269-3.63,1.603-2.268,1.73
		c5.667,0.532,18.059,12.061,22.594,12.728c0.792,1.873,1.596,14.929,1.457,15.729c-0.124,0.801,1.606,2.934,3.006,3.998
		c1.06,0.81,1.503,2.792,2.8,3.132c1.266,0.335,0.322-3.664,1.266-4.599c0.935-0.93,0.801-2.263,0.667-3.73
		c1.239,1.72,2.44,2.664,3.291,3.278c0.132,3.945,0.589,13.12,0.665,15.338c0,0,0.532,0.177,1.242-0.446
		c0.091-1.864-1.338-14.45-1.348-14.486c1.017,0.359,2.633,4.501,3.083,4.315C110.744,103.748,108.339,98.529,108.196,97.128z
		 M99.877,81.406c1.882,0.477,3.528,3.129,4.194,5.458C103.209,85.468,101.076,82.792,99.877,81.406z"/>
	<path d="M104.799,125.452c-4.618-3.711-18.162,5.523-14.252,8.864C94.211,137.451,108.196,128.184,104.799,125.452z
		 M94.278,131.717c-0.564,0.357,1-3,5.063-4.333C100.128,127.131,95.011,131.252,94.278,131.717z"/>
	<path d="M96.442,139.249c0.593,0.13,1.136-0.635,1.1-1.068c-0.031-0.434-1.9-1.405-2.397-0.798
		C94.308,138.376,95.978,139.149,96.442,139.249z"/>
	<path d="M61.712,137.272l0.178-1.37c0.11-0.287,0.312,0,0.582,0c0.262-0.63-1.071-0.764-0.404-1.608
		c0.37-0.467,1.166-0.001,1.688,0.221c0.624,0.269,2.401,0.312,2.444,1.822c0.039,1.386-1.601,1.871-2.799,1.871
		s-3.233,0.396-3.333-0.361C59.976,137.095,61.089,137.237,61.712,137.272z"/>
	<path d="M51.887,137.961c0.793,0.356,1.636,0.612,1.971,0.286c0.934-0.899,4.298-3.295,7.066-3.864
		c-0.394-1.199,2.463-2.764,4.338-0.899c2.692,0.331,4.593-1.565,9.655-1.068c-0.832,0.866-1.164,1.569-1.7,1.933
		c-0.599,0.034-1.931,0.199-1.931-0.234c-0.323,0-1.101,0-1.535,0c-1.041,0.537-2.666,1.136-1.596,2.065
		c1.064,0.936,2.433-0.898,4.065-0.367c-0.703,0.234-3.435,1.933-2.635,2.402c0.801,0.465,4.799-3.166,7.764-0.366
		c-1.333-0.233-4.396,0.3-6.498,1.333c-0.667,0-1.963,0-2.629,0s-3.301-1.302-6.431-1.266c-2.5,0.024-1.4,0.869-6.566,0.869
		c-0.271,0.265-0.883,0.269-0.734,0.93c1.069,0.665,2.192,1.308,3.349,1.915c5.366,2.634,12.326,5.132,20.449,7.086
		c1.233-0.33,1.735-0.658,2.803-0.487c1.152,0.178,4.7,1.907,7.46,2.488c2.748,0.576,22.383,1.927,21.583-1.472
		c-2.464,0.465-8.615,0.734-12.662,0.465c-4.041-0.264-10.393-1.836-10.527-2.459c-0.135-0.624,2.799-0.14,4.175-0.624
		c-2.042-0.048-12.236-2.036-12.374-3.648c-0.083-1.04,3.222,0.585,3.845,0.052c0.621-0.537-4.934-1.159-3.821-2.493
		c1.108-1.335,13.951,4.313,19.948,4.8c5.997,0.488,4.573-2.496,4.573-2.496c1.155-0.572,3.688-1.283,6.266-1.508
		c-0.575,1.334-8.218,8.711-15.326,4.799c-0.534,0-1.383-0.043-1.868-0.043c-0.131,0.22-0.4,0.667-0.222,0.887
		c0.177,0.225,11.684,6.088,22.215-3.332c1.645,0.58,5.908,2.891,5.643,3.954c-0.269,1.067-7.776,3.198-10.576,3.913
		c-0.042,0.354-0.138,0.843-0.085,1.241c0.322,0.048,2.415,0.241,5.136,0.327c6.277-0.062,11.286-0.763,14.323-2.113
		c1.751-1.251,2.889-2.467,3.262-3.787c0.144-5.402-11.042-12.595-27.366-17.393c-3.159,4.166-8.488,5.209-8.554,5.928
		c-0.067,0.734,0.702,0.301,1.167,0.435c0.464,0.134-0.166,0.868,0.733,1.064c0.607,0.137,1.227-0.517,1.865-0.491
		c1.13,0.025,1.632,1.658,2.066,1.725c0.239,0.035,0.843-0.506,1.302-0.392c0.37,0.075,0.067,0.79,0.966,0.924
		c2.172,0.324,1.033-2.864,2.33-2.257c0.935,3.626-7.062,6.323-7.03,6.623c0.036,0.3,2.701,0.17,3.367-0.032
		c-0.134,0.465-0.335,1.401-4.4,0.899c-4.066-0.502-2.03-1.797-0.698-1.797c-1.503-1.534-2.366,0.397-3.931,0.371
		c-1.575-0.041-2.102-1.643-2.732-1.643c-0.636,0-0.135,1.003-1.768,0.771c-1.632-0.233-1.434-0.701-0.702-1.067
		c0.036-0.467-3.399-0.399-3.43-1.066c-0.124-2.46,8.828-0.434,8.997-0.832c0.167-0.402-5.666-1.81-8.765-1.632
		c-3.1,0.165-4.713,2.25-5.796,1.159c-0.935-0.926,4.065-2.626,0.599-3.158c-3.134-0.483-1.467,0.966-3.998,0.833
		c-2.533-0.134-1.4-1.437,0.997-3.1c2.402-1.665,10.564,1.266,10.907,0.899c0.323-0.367-1.51-0.501-1.773-1.229
		c-0.269-0.728,5.525-5.067,5.331-5.27c-0.202-0.189-3.194,2.201-3.467,1.812c-0.261-0.4,2.1-2.082,2.717-2.666
		c-23.29-4.118-43.908-2.378-45.012,3.643c-0.134,0.79,0.019,1.642,0.46,2.541C47.841,134.637,49.709,136.368,51.887,137.961z
		 M60.218,139.083c-0.002-0.243,0.643-0.465,1.454-0.5c0.806-0.039,1.47,0.127,1.482,0.365c0.012,0.239-0.633,0.461-1.444,0.498
		C60.899,139.485,60.235,139.324,60.218,139.083z M65.821,143.449c-0.6-0.135-3.198-1.268-3.198-1.268
		c1.431-0.066,3.998-0.132,4.065,0.131c0.666,0.066,1.333-0.166,1.534,0.475C66.232,142.647,66.42,143.577,65.821,143.449z
		 M75.95,145.644c-1.226-0.064-2.763,0.47-3.429,0.666c-0.599-0.07-2.133-0.231-2.567-1.131c0.666-0.464,2.597-0.692,3.73-0.868
		C75.382,144.513,76.422,145.044,75.95,145.644z M76.849,143.18c-1.043-0.959,0.037-1.333,0.569-0.868
		C77.949,142.787,77.65,143.913,76.849,143.18z M84.125,127.188c0.922,0.497,0.854,4.329,0.555,4.562
		c-0.3,0.243-1.73,0.335-1.73-0.032c0-0.367,0.266-2.133,0.266-2.698c0-0.566-1.35-1.324-1.599-1.666
		C81.183,126.753,83.182,126.686,84.125,127.188z"/>
	<path d="M91.212,125.44c-20.727-4.53-46.088-2.016-46.917,4.524c-0.709,5.685,0.347,16.082,35.463,24.351
		c33.581,7.902,49.75,1.948,53.84-6.048C137.674,140.27,112.806,130.141,91.212,125.44z M133.234,147.471
		c-1.209,5.873-19.385,9.349-49.929,3.284c-24.178-4.799-39.137-14.82-38.031-20.703c1.105-5.885,19.281-9.063,45.006-4.169
		C113.036,130.215,134.662,140.538,133.234,147.471z"/>
	<polygon fill="#D5D5C0" points="107.941,130.52 108.473,129.584 110.806,130.717 109.671,131.324 	"/>
	<path fill="#D5D5C0" d="M150.459,121.386c0.985-0.777-15.332,0.068-15.442,1.023c-0.09,0.789,1.687-0.154,0.978,1.71
		c-0.709,1.868-5.24,1.003-5.331,2.335c-0.086,1.333,2.142,0.382,1.333,2.808c-0.734,2.187-6.132,1.456-7.263,3.256
		c-0.715,1.137,3.399,1.536,3.13,3.063c-0.744,4.297-8.729-3.465-19.525,8.596c-4.719,5.284-13.927,0.727-13.304,1.87
		c1.475,2.688,9.641,3.131,14.771,0.001c4.85-2.962,2.91-4.108,7.532-6.602c4.622-2.48,16.126-0.055,18.215-2.723
		c2.326-2.981-6.698-1.909-4.488-4.671c1.867-2.333,6.196-0.358,7.266-2.668c1.064-2.305-4.42-1.022-3.001-2.532
		c1.424-1.509,6.621-0.534,7.066-1.592c0.437-1.075-3.386-0.274-2.579-1.516C140.617,122.498,147.927,123.385,150.459,121.386z"/>
	<path d="M150.459,121.386c0.985-0.777-15.332,0.068-15.442,1.023c-0.09,0.789,1.687-0.154,0.978,1.71
		c-0.709,1.868-5.24,1.003-5.331,2.335c-0.086,1.333,2.142,0.382,1.333,2.808c-0.734,2.187-6.132,1.456-7.263,3.256
		c-0.715,1.137,3.399,1.536,3.13,3.063c-0.744,4.297-8.729-3.465-19.525,8.596c-4.719,5.284-13.927,0.727-13.304,1.87
		c1.475,2.688,9.641,3.131,14.771,0.001c4.85-2.962,2.91-4.108,7.532-6.602c4.622-2.48,16.126-0.055,18.215-2.723
		c2.326-2.981-6.698-1.909-4.488-4.671c1.867-2.333,6.196-0.358,7.266-2.668c1.064-2.305-4.42-1.022-3.001-2.532
		c1.424-1.509,6.621-0.534,7.066-1.592c0.437-1.075-3.386-0.274-2.579-1.516C140.617,122.498,147.927,123.385,150.459,121.386z
		 M141.698,125.116c-0.316,1.105-5.023-0.125-6.697,1.798c-1.36,1.562,3.947,0.27,2.884,2.574c-1.07,2.31-4.93-0.341-7.163,2.697
		c-2.094,2.852,6.796,1.657,4.372,4.559c-1.891,2.263-13.239-0.155-17.86,2.326c-4.622,2.493-2.685,3.735-7.535,6.697
		c-5.13,3.13-12.406,2.14-13.768,0.744c-0.908-0.931,8.118,3.052,12.837-2.232c10.796-12.06,19.163-3.907,19.721-8.62
		c0.183-1.54-3.727-2.003-3.011-3.14c1.131-1.801,6.529-1.07,7.263-3.256c0.81-2.426-1.418-1.475-1.333-2.808
		c0.09-1.333,4.622-0.468,5.331-2.335c0.709-1.864-0.619-0.819-0.529-1.608c0.11-0.955,14.232-1.488,13.582-1.023
		c-2.177,1.554-9.711,0.894-10.512,2.14C138.474,124.869,141.823,124.682,141.698,125.116z"/>
	<path d="M95.011,118.99c0.667-0.068,0.995-0.245,0.995-0.581c0-0.399-0.64,0.091-0.53-0.6c2.134-2-4.991-2.541-6.328,0.843
		c-1.137,2.867,5.35,3.155,6.15,2.225c0,0-0.178-0.351-0.575-0.624c0.069-0.168,0.714-0.123,0.734-0.334
		C95.488,119.539,94.488,119.041,95.011,118.99z M92.547,119.301c-0.107,1.238,1.882,1.155,1.62,1.408
		c-0.269,0.243-2.106,0.034-2.165-1.432c-0.036-1.132,2.911-2.134,3.143-1.822C95.318,117.699,92.634,118.232,92.547,119.301z"/>
	<path d="M112.768,119.441"/>
	<polygon fill="#D5D5C0" points="107.141,132.092 108.396,129.813 110.806,130.717 	"/>
	<path d="M130.42,83.789c-12.908,3.652-18.783,12.309-18.396,17.699c0.373,5.197,6.779,7.156,5.768,10.977
		c-1.256,4.744-8.093,3.116-8.187,5.72c-0.043,1.205,2.412,2.325,3.163,1.256c0.499,1.466-1.156,0.9-1.395,2.233
		c-0.251,1.333,4.241,3.64,2.512,6.14c-1.748,2.536-4.208,2.915-6.233,3.907c6.136-10.725-2.106-11.691-2.232-13.954
		c-0.133-2.468,5.396-2.604,6.418-7.813c0.538-2.74-5.716-7.225-4.714-10.957c0.629-2.353,4.482-7.461,8.9-7.947
		c-5.116,0.206-8.677,5.594-9.348,7.947c-1.069,3.732,5.138,8.489,4.604,11.236c-0.798,4.133-6.482,4.958-6.341,7.426
		c0.135,2.263,8.946,3.737,1.318,15.364c2.161-0.993,6.281-2.436,8.146-4.972c1.846-2.499-2.741-4.904-2.472-6.237
		c0.255-1.333,1.674-0.373,1.255-3.116c-0.8,1.069-2.916,0.69-3.05-0.508c-0.204-1.846,7.066-0.801,8.264-5.863
		c0.914-3.858-5.331-6.131-5.729-11.329C112.259,95.606,119.885,87.488,130.42,83.789z"/>
	<path d="M106.407,44.395c-0.177-7.733-6.564-6.677-7.552-11.908c-0.622-3.29-4.534-3.912-6.308-5.508
		c-1.711-1.542-1.069-7.208-6.578-6.578c-3.318,0.375-5.351,0.873-7.918,0.446c-1.056-0.177-4.609,2.219-4.699,3.466
		c-0.121,1.685-0.274,2.22-0.532,3.473c-0.28,1.298-4.325,5.49-1.198,6.193c0.625,5.696-3.786,12.489-0.979,12.369
		c-0.113,0.413-0.175,0.848-0.189,1.262c-0.899,0.104-1.467,0.538-1.668,0.97c0.532,0.198,1.235,0.601,1.235,1.434
		c-0.6-0.098-1.101,0.133-1.4,0.433c0.734,0.397,1.06,0.966,1.467,1.767c-2.665,1.463,0.134,5.197,1.798,7.397
		c-0.066,0.423,1.045-0.028,1.799,0.131c0.267,1.868,1.403,4.357,1.802,5.665c5.062,0.935,16.126,6.4,17.325,7.194
		c1.132-0.666,1.467-1.335,1.999-2.396c0-1.265-0.139-4.267,0.134-5.465c0.935-1.664,2.666-5.656,2.867-6.865
		c1.468,0,1.891-0.987,1.932-1.798c0.039-0.769,0.473-3.113,0.266-4.565C102.836,50.335,106.535,49.961,106.407,44.395z
		 M89.014,57.75c-2.598,0.051-6.131,0.393-7.33,0.596c0-0.203,0-0.596,0-0.596c1.532-0.541,5.535-1.404,7.196-0.804
		C88.947,57.276,89.081,57.411,89.014,57.75z M99.826,50.835c-0.206-0.485-0.607-0.694-1.281-0.356
		c0.009-0.129-0.006-0.294-0.053-0.47c1.698-2.018,4.052-3.004,4.052-3.004l-0.714-0.97c0,0-1.82,1.559-3.095,2.378
		c-0.592-1.333,0.121-2.136-0.122-5.997c-0.301-4.462-8.006-9.862-8.006-9.862l-0.728,0.465c7.266,5.466,7.242,6.976,7.774,9.507
		c0.334,1.577-0.618,3.558-0.058,5.398c-1.062-1.89-2.716-4.04-3.317-4.641c-0.941-0.935-5.587-3.34-11.86-3.467
		c-5.58-0.11-10.106,2.416-11.513,5.763c-0.892-1.445,2.07-5.905,1.567-11.089c0.797-0.94,3.546-3.16,4.609-4.314
		c-0.085-2.134-2.75-0.267-2.478,1.333c-0.805,0.978-1.605,1.864-2.229,2.042c-0.5,0.145-0.653-0.569-0.694-1.273
		c0.397-1.398,1.565-3.022,1.728-3.785c0.255-1.185,0.395-1.69,0.509-3.296c0.081-1.181,3.463-3.728,4.476-3.56
		c2.433,0.404,4.362-0.067,7.519-0.422c5.24-0.596,4.627,5.054,6.252,6.514c1.689,1.521,5.407,2.119,5.997,5.24
		c0.938,4.972,7.278,3.975,7.446,11.317C105.711,49.213,102.461,49.864,99.826,50.835z"/>
	<path d="M76.641,114.766"/>
	<path d="M93.477,80.47c-5.019,0.801-19.771-10.13-21.189-10.221c-1.515-0.092-9.512-0.441-10.221,0.091
		c-2.144,1.607-8.538,4.476-8.265,6.396c0.351,2.487-7.101,8.533-4.842,14.396c-1.731,1.198-3.198,3.375-2.259,4.976
		c-2.496,0.666-3.91,4.669-2.76,6.266c-0.716,3.125-0.804,5.712-0.88,6.934c-0.095,1.202,5.587,8.309,6.522,8.309
		c0.93,0,4.884,0.218,5.82,0.084c0.765-0.109,2.401-0.969,2.959-1.271c-0.576,0.133-1.177,0.285-1.694,0.418
		c-8.097-1.657-10.813-9.602-11.545-14.358c2.875-2.73,5.216-5.872,9.937-6.425c5.995-0.703,10.738,3.824,13.962,3.962
		c0.586,0.069,1.144,0.304,0.955,1.859c0.709,0.708,1.688,1.687,1.597,3.115c-0.086,1.416,0.792,0.917,1.155-0.896
		c0.269-1.333-0.986-2.311-1.597-2.666c0-0.623-0.138-1.442-0.533-1.857c2.47-1.739,4.192-8.603,2.479-11.202
		c2.408-1.334,5.616-10.695,1.43-13.959c-0.801-0.614-1.155,0-0.801,0.719c2.23,4.445,2.666,7.642-2.843,13.504
		c1.51,1.156,1.687,3.113,1.424,4.445c-0.354-1.068-1.424-2.229-2.311-2.488c0.709,1.155,2.042,7.231-0.99,8.16
		c-2.866,0.884-6.757-5.662-12.165-4.518c3.301,0.423,5.776,1.599,6.754,3.114c-2.133-1.071-4.053-2.485-8.95-1.758
		c-4.969,0.741-5.978,2.463-10.058,5.927c-0.364-1.891,1.114-4.083,2.746-4.973c-0.263-2.756,2.225-5.421,3.735-6.045
		c0.086-1.242-0.178-2.666-0.178-2.666l-1.713,1.319c0.06-5.028,5.573-9.831,5.266-11.98c-0.272-1.919,6.117-4.788,8.265-6.4
		c0.709-0.533,7.996-0.093,9.506,0c0.593,0.04,3.428,1.989,6.996,4.178c3.305,6.699,7.065,12.45,5.089,36.7
		c0.268,0.531,0.667,0.531,0.935,0c0.256-0.524,2.933-24.831-4.9-36.026c4.185,2.517,9.112,5.113,12.617,5.395L93.477,80.47z
		 M55.313,117.168c-0.888,0.178-4.221-0.218-5.164-0.218c-0.92,0-6.162-7.199-6.074-8.402c0.079-1.008,0.079-2.254,0.52-4.418
		C46.057,111.369,50.917,116.101,55.313,117.168z"/>
	<path d="M62.599,114.947c2.402,0.796,1.156,4.887,3.466,6.128c1.004,0.544,2.918,0.515,3.021-0.441
		c0.167-1.512-1.419-3.644-2.22-5.153c-0.385-0.726-0.754-3.516,0.323-2.513c0.552,0.522-0.031,1.347,0.301,2.066
		c0.588,1.288,3.405,6.793,3.785,7.947c0.053,0.142,0.122,0.282,0.226,0.43c1.901-0.029,3.875,0.027,5.892,0.165
		c-0.177-0.574-0.5-1.283-1.02-2.139c-0.383-2.665-0.436-6.85-0.355-8.892l0.89-0.178c0.293,1.004,0.659,1.894,1.079,2.668
		c-0.93-0.421-1.552-0.444-1.438,0.175c0.284,1.495,0,3.643,0.269,5.153c0.161,0.921,0.818,1.911,1.268,3.263
		c2.708,0.218,5.312,0.575,7.745,1.052c-0.675-1.648-1.523-3.564-2.552-5.102c2.62,0.739,4.672-0.365,3.4-1.962
		c-1.156-1.426-2.397-4.446-3.821-6.134c-0.441-1.69-1.155-3.912-2.751-5.511c-2.586-2.583-5.115-1.773-8.442-2.305
		c-3.127-0.508-4.458-1.941-7.464-2.85c-2.84-0.849-7.552-1.374-10.398,0c-1.764,0.857-4.353,2.934-4.623,5.337
		C48.917,108.548,51.937,118.501,62.599,114.947z"/>
	<polygon fill="#D5D5C0" points="114.489,135.395 117.373,132.836 118.164,133.255 	"/>
	<path d="M137.328,90.86c-9.727,2.009-14.941,7.862-16.28,12.861c-1.396,5.209,4.392,9.276,2.791,17.674
		c-1.602,8.396-10.242,14.522-11.032,15.054c4.532-1.333,14.393-9.464,14.255-17.326c-0.126-7.867-3.458-10.264-3.458-14.79
		C123.603,99.794,129.6,94.329,137.328,90.86z M123.094,104.651c0,4.526,3.736,6.925,3.535,14.79
		c-0.187,7.256-7.442,12.837-11.535,15.628c0.79-0.532,7.608-5.372,9.209-13.768c1.601-8.397-4.041-12.048-2.977-17.117
		c1.069-5.063,6.697-10.883,14.511-12.744C129.419,94.325,123.094,99.441,123.094,104.651z"/>
</g>
<g id="text">
	<g>
		<path fill="#D5D5C0" d="M198.218,51.23v25.272h-6.156V66.099h-9.576v10.404h-6.156V51.23h6.156v9.9h9.576v-9.9H198.218z"/>
		<path fill="#D5D5C0" d="M208.063,75.099c-1.98-1.104-3.552-2.646-4.716-4.626c-1.165-1.98-1.746-4.206-1.746-6.678
			c0-2.472,0.582-4.692,1.746-6.66c1.164-1.967,2.736-3.503,4.716-4.608c1.98-1.104,4.158-1.656,6.534-1.656
			s4.554,0.552,6.534,1.656c1.98,1.104,3.54,2.641,4.68,4.608c1.14,1.968,1.71,4.188,1.71,6.66c0,2.472-0.576,4.698-1.728,6.678
			c-1.152,1.98-2.712,3.522-4.68,4.626c-1.968,1.104-4.14,1.656-6.516,1.656S210.043,76.203,208.063,75.099z M219.439,69.123
			c1.212-1.344,1.818-3.12,1.818-5.328c0-2.232-0.606-4.014-1.818-5.346s-2.826-1.998-4.842-1.998c-2.04,0-3.667,0.66-4.878,1.98
			c-1.212,1.32-1.818,3.108-1.818,5.364c0,2.232,0.606,4.014,1.818,5.346c1.211,1.332,2.838,1.998,4.878,1.998
			C216.613,71.139,218.227,70.467,219.439,69.123z"/>
		<path fill="#D5D5C0" d="M253.549,76.502h-6.156l-10.296-15.588v15.588h-6.156V51.23h6.156l10.296,15.66V51.23h6.156V76.502z"/>
		<path fill="#D5D5C0" d="M274.789,59.223c-0.456-0.84-1.11-1.482-1.962-1.926c-0.852-0.444-1.854-0.666-3.006-0.666
			c-1.992,0-3.588,0.654-4.788,1.962c-1.2,1.309-1.8,3.055-1.8,5.238c0,2.328,0.63,4.146,1.89,5.454
			c1.26,1.308,2.994,1.962,5.202,1.962c1.512,0,2.79-0.384,3.834-1.152c1.044-0.768,1.806-1.872,2.286-3.312h-7.812v-4.536h13.392
			v5.724c-0.457,1.537-1.23,2.965-2.322,4.284c-1.092,1.32-2.478,2.388-4.158,3.204c-1.68,0.816-3.577,1.224-5.688,1.224
			c-2.497,0-4.722-0.546-6.678-1.638c-1.957-1.092-3.48-2.61-4.572-4.554c-1.093-1.944-1.638-4.164-1.638-6.66
			s0.545-4.722,1.638-6.678c1.092-1.956,2.61-3.479,4.554-4.572c1.944-1.092,4.164-1.638,6.66-1.638c3.024,0,5.574,0.732,7.65,2.196
			c2.076,1.464,3.45,3.492,4.122,6.084H274.789z"/>
		<path fill="#D5D5C0" d="M307.728,76.502l-8.496-11.16v11.16h-6.156V51.23h6.156v11.088l8.424-11.088h7.236L305.1,63.614
			l10.152,12.888H307.728z"/>
		<path fill="#D5D5C0" d="M323.586,75.099c-1.98-1.104-3.552-2.646-4.716-4.626c-1.165-1.98-1.746-4.206-1.746-6.678
			c0-2.472,0.582-4.692,1.746-6.66c1.164-1.967,2.736-3.503,4.716-4.608c1.98-1.104,4.158-1.656,6.534-1.656
			s4.554,0.552,6.534,1.656c1.98,1.104,3.54,2.641,4.68,4.608c1.14,1.968,1.71,4.188,1.71,6.66c0,2.472-0.576,4.698-1.728,6.678
			c-1.152,1.98-2.712,3.522-4.68,4.626c-1.968,1.104-4.14,1.656-6.516,1.656S325.566,76.203,323.586,75.099z M334.962,69.123
			c1.212-1.344,1.818-3.12,1.818-5.328c0-2.232-0.606-4.014-1.818-5.346s-2.826-1.998-4.842-1.998c-2.04,0-3.667,0.66-4.878,1.98
			c-1.212,1.32-1.818,3.108-1.818,5.364c0,2.232,0.606,4.014,1.818,5.346c1.211,1.332,2.838,1.998,4.878,1.998
			C332.136,71.139,333.75,70.467,334.962,69.123z"/>
		<path fill="#D5D5C0" d="M369.072,76.502h-6.156L352.62,60.915v15.588h-6.156V51.23h6.156l10.296,15.66V51.23h6.156V76.502z"/>
		<path fill="#D5D5C0" d="M390.312,59.223c-0.456-0.84-1.11-1.482-1.962-1.926c-0.852-0.444-1.854-0.666-3.006-0.666
			c-1.992,0-3.588,0.654-4.788,1.962c-1.2,1.309-1.8,3.055-1.8,5.238c0,2.328,0.63,4.146,1.89,5.454
			c1.26,1.308,2.994,1.962,5.202,1.962c1.512,0,2.79-0.384,3.834-1.152c1.044-0.768,1.806-1.872,2.286-3.312h-7.812v-4.536h13.392
			v5.724c-0.457,1.537-1.23,2.965-2.322,4.284c-1.092,1.32-2.478,2.388-4.158,3.204c-1.68,0.816-3.577,1.224-5.688,1.224
			c-2.497,0-4.722-0.546-6.678-1.638c-1.957-1.092-3.48-2.61-4.572-4.554c-1.093-1.944-1.638-4.164-1.638-6.66
			s0.545-4.722,1.638-6.678c1.092-1.956,2.61-3.479,4.554-4.572c1.944-1.092,4.164-1.638,6.66-1.638c3.024,0,5.574,0.732,7.65,2.196
			c2.076,1.464,3.45,3.492,4.122,6.084H390.312z"/>
		<path fill="#D5D5C0" d="M414.755,56.163v5.112h8.244v4.752h-8.244v5.544h9.324v4.932h-15.48V51.23h15.48v4.932H414.755z"/>
		<path fill="#D5D5C0" d="M443.555,76.502l-5.148-7.74l-4.536,7.74h-6.984l8.1-12.852l-8.28-12.42h7.164l5.076,7.632l4.464-7.632
			h6.984l-8.028,12.744l8.352,12.528H443.555z"/>
		<path fill="#D5D5C0" d="M472.066,63.38c-0.672,1.212-1.705,2.19-3.096,2.934c-1.393,0.744-3.121,1.116-5.184,1.116h-3.816v9.072
			h-6.156V51.23h9.973c2.016,0,3.719,0.348,5.111,1.044c1.393,0.696,2.436,1.656,3.133,2.88c0.695,1.224,1.043,2.628,1.043,4.212
			C473.074,60.831,472.738,62.169,472.066,63.38z M465.947,61.707c0.576-0.552,0.863-1.332,0.863-2.34
			c0-1.008-0.287-1.788-0.863-2.34c-0.576-0.552-1.453-0.828-2.629-0.828h-3.348v6.336h3.348
			C464.494,62.535,465.371,62.259,465.947,61.707z"/>
		<path fill="#D5D5C0" d="M489.167,76.502l-5.256-9.54h-1.477v9.54h-6.155V51.23h10.332c1.991,0,3.689,0.348,5.094,1.044
			c1.403,0.696,2.453,1.65,3.149,2.862c0.696,1.212,1.044,2.563,1.044,4.05c0,1.68-0.474,3.18-1.422,4.5
			c-0.948,1.32-2.346,2.256-4.193,2.808l5.832,10.008H489.167z M482.435,62.606h3.816c1.128,0,1.974-0.275,2.538-0.828
			c0.563-0.552,0.846-1.332,0.846-2.34c0-0.959-0.282-1.716-0.846-2.268c-0.564-0.552-1.41-0.828-2.538-0.828h-3.816V62.606z"/>
		<path fill="#D5D5C0" d="M505.906,56.163v5.112h8.244v4.752h-8.244v5.544h9.324v4.932h-15.479V51.23h15.479v4.932H505.906z"/>
		<path fill="#D5D5C0" d="M523.401,75.854c-1.465-0.6-2.635-1.488-3.51-2.664c-0.877-1.176-1.339-2.592-1.387-4.248h6.553
			c0.095,0.936,0.419,1.65,0.972,2.142c0.552,0.492,1.271,0.738,2.16,0.738c0.911,0,1.632-0.209,2.16-0.63
			c0.527-0.419,0.792-1.002,0.792-1.746c0-0.624-0.211-1.14-0.631-1.548c-0.42-0.408-0.936-0.744-1.548-1.008
			c-0.611-0.264-1.481-0.564-2.609-0.9c-1.633-0.504-2.965-1.008-3.996-1.512c-1.032-0.504-1.921-1.248-2.664-2.232
			c-0.744-0.984-1.116-2.268-1.116-3.852c0-2.352,0.852-4.194,2.556-5.526s3.925-1.998,6.66-1.998c2.784,0,5.027,0.666,6.732,1.998
			c1.703,1.332,2.615,3.186,2.735,5.562h-6.659c-0.049-0.816-0.349-1.458-0.9-1.926c-0.553-0.468-1.26-0.702-2.124-0.702
			c-0.744,0-1.345,0.198-1.8,0.594c-0.456,0.396-0.685,0.966-0.685,1.71c0,0.816,0.384,1.452,1.152,1.908
			c0.768,0.456,1.968,0.948,3.6,1.476c1.632,0.553,2.958,1.08,3.979,1.584c1.02,0.504,1.901,1.237,2.646,2.196
			c0.744,0.96,1.116,2.196,1.116,3.708c0,1.44-0.366,2.749-1.098,3.924c-0.732,1.176-1.795,2.112-3.187,2.808
			c-1.392,0.696-3.036,1.044-4.932,1.044C526.521,76.754,524.865,76.455,523.401,75.854z"/>
		<path fill="#D5D5C0" d="M545.541,75.854c-1.465-0.6-2.635-1.488-3.51-2.664c-0.877-1.176-1.339-2.592-1.387-4.248h6.553
			c0.095,0.936,0.419,1.65,0.972,2.142c0.552,0.492,1.271,0.738,2.16,0.738c0.911,0,1.632-0.209,2.16-0.63
			c0.527-0.419,0.792-1.002,0.792-1.746c0-0.624-0.211-1.14-0.631-1.548c-0.42-0.408-0.936-0.744-1.548-1.008
			c-0.611-0.264-1.481-0.564-2.609-0.9c-1.633-0.504-2.965-1.008-3.996-1.512c-1.032-0.504-1.921-1.248-2.664-2.232
			c-0.744-0.984-1.116-2.268-1.116-3.852c0-2.352,0.852-4.194,2.556-5.526s3.925-1.998,6.66-1.998c2.784,0,5.027,0.666,6.732,1.998
			c1.703,1.332,2.615,3.186,2.735,5.562h-6.659c-0.049-0.816-0.349-1.458-0.9-1.926c-0.553-0.468-1.26-0.702-2.124-0.702
			c-0.744,0-1.345,0.198-1.8,0.594c-0.456,0.396-0.685,0.966-0.685,1.71c0,0.816,0.384,1.452,1.152,1.908
			c0.768,0.456,1.968,0.948,3.6,1.476c1.632,0.553,2.958,1.08,3.979,1.584c1.02,0.504,1.901,1.237,2.646,2.196
			c0.744,0.96,1.116,2.196,1.116,3.708c0,1.44-0.366,2.749-1.098,3.924c-0.732,1.176-1.795,2.112-3.187,2.808
			c-1.392,0.696-3.036,1.044-4.932,1.044C548.66,76.754,547.005,76.455,545.541,75.854z"/>
		<path fill="#D5D5C0" d="M603.1,56.741h-12.238c3.348,3.312,8.459,6.443,12.923,7.991c-0.576,0.504-1.296,1.404-1.656,2.016
			c-4.859-1.979-10.547-5.831-14.074-9.898v7.271h-2.447v-7.199c-3.42,4.392-8.892,8.351-13.858,10.367
			c-0.36-0.612-1.08-1.476-1.62-1.98c4.536-1.62,9.575-4.931,12.814-8.567h-12.166v-2.195h14.83v-3.924
			c-3.744,0.36-7.667,0.612-11.267,0.792c-0.072-0.576-0.36-1.512-0.648-2.088c8.315-0.396,18.214-1.368,23.505-2.771l2.017,2.016
			c-0.108,0.108-0.181,0.108-0.756,0.108c-2.7,0.648-6.407,1.224-10.403,1.692v4.176H603.1V56.741z M576.176,79.598V65.164h21.957
			V79.49h-2.412v-1.26h-17.206v1.368H576.176z M595.721,67.144h-17.206v3.563h17.206V67.144z M578.515,76.25h17.206v-3.708h-17.206
			V76.25z"/>
		<path fill="#D5D5C0" d="M607.352,56.237c2.232,0.936,4.968,2.484,6.336,3.708l-1.404,1.98c-1.332-1.224-4.031-2.88-6.299-3.888
			L607.352,56.237z M639.855,59.909h-6.623c1.656,3.095,4.355,6.011,7.127,7.487c-0.575,0.432-1.331,1.296-1.691,1.908
			c-1.979-1.224-3.888-3.131-5.472-5.327v7.919h-11.519v4.211c0,1.044,0.433,1.224,2.809,1.224h8.351
			c1.872,0,2.159-0.504,2.34-3.852c0.54,0.396,1.512,0.756,2.195,0.9c-0.359,4.175-1.151,5.111-4.392,5.111h-8.566
			c-3.96,0-5.04-0.612-5.04-3.348v-6.263h11.591v-4.067h-10.043v-1.62c-1.619,2.196-3.527,4.14-5.398,5.436
			c-0.252-0.396-0.721-0.9-1.116-1.332c-1.584,3.563-3.527,7.523-4.968,10.043c0.145,0.18,0.181,0.36,0.181,0.504
			s-0.036,0.288-0.108,0.396l-2.52-1.656c1.728-2.844,4.176-7.667,5.939-11.807l1.835,1.44c2.376-1.728,4.752-4.5,6.264-7.307
			h-6.659v-2.232h6.587v-4.751h-4.967v-2.231h4.967v-4.536l3.06,0.18c-0.036,0.252-0.216,0.432-0.72,0.504v3.852h7.523v-4.536
			l3.096,0.18c-0.036,0.252-0.252,0.432-0.721,0.504v3.852h5.651v2.231h-5.651v4.751h6.659V59.909z M609.224,46.446
			c2.231,1.044,4.932,2.7,6.264,3.996l-1.477,1.943c-1.26-1.295-3.923-3.06-6.155-4.175L609.224,46.446z M623.478,59.909
			c-0.611,1.332-1.403,2.627-2.268,3.887h11.879c-0.9-1.224-1.656-2.556-2.231-3.887H623.478z M623.298,52.925v4.751h7.523v-4.751
			H623.298z"/>
		<path fill="#D5D5C0" d="M645.979,53.429c0,3.168-0.576,7.127-1.943,9.467l-1.908-0.972c1.224-2.088,1.8-5.759,1.872-8.783
			L645.979,53.429z M647.527,46.086l3.096,0.216c-0.036,0.252-0.252,0.432-0.72,0.468v32.72h-2.376V46.086z M652.171,51.773
			c1.188,1.836,2.483,4.211,3.023,5.688l-1.764,1.188c-0.54-1.583-1.836-4.067-2.987-5.939L652.171,51.773z M675.712,65.308h-10.366
			c1.943,5.616,5.579,10.223,10.762,12.131c-0.575,0.504-1.367,1.512-1.728,2.231c-5.255-2.304-8.818-7.055-10.942-13.03
			c-1.224,4.68-3.888,9.359-9.755,12.995c-0.324-0.504-1.151-1.368-1.691-1.8c5.975-3.492,8.387-8.027,9.395-12.527h-8.171v-2.339
			h8.566c0.252-2.052,0.288-4.032,0.288-5.867v-2.772h-6.587v-2.268h6.587v-5.975l3.096,0.216c-0.036,0.252-0.252,0.432-0.72,0.504
			v5.255h8.027v10.907h3.239V65.308z M664.445,54.329v2.772c0,1.835-0.036,3.851-0.288,5.867h5.903v-8.639H664.445z"/>
		<path fill="#D5D5C0" d="M691.914,51.125l1.44,0.756c-0.072,0.144-0.216,0.252-0.324,0.324c-2.52,4.896-8.135,8.135-13.57,9.683
			c-0.288-0.468-0.792-1.224-1.224-1.62c2.304-0.576,4.68-1.512,6.803-2.771c-0.863-0.648-2.016-1.368-3.023-1.872l1.368-1.152
			c1.079,0.504,2.375,1.26,3.312,1.944c1.439-1.008,2.663-2.196,3.563-3.527h-6.048c-1.367,1.368-3.131,2.664-4.787,3.527
			c-0.324-0.324-0.972-0.9-1.403-1.188c2.016-1.008,4.247-2.7,5.543-4.535l1.512,0.54h1.476v-5.147l2.736,0.18
			c-0.036,0.252-0.217,0.432-0.648,0.468v1.116h6.3v1.656h-6.3v1.728h2.88L691.914,51.125z M696.63,72.759
			c0.864,0.828,1.943,1.548,3.168,2.16c2.339-0.9,5.219-2.231,6.911-3.275l2.016,1.332c-0.145,0.18-0.36,0.252-0.721,0.18
			c-1.583,0.828-3.995,1.8-6.19,2.628c2.735,0.972,6.047,1.548,9.646,1.8c-0.468,0.504-1.044,1.404-1.332,2.016
			c-7.163-0.72-13.03-2.808-16.09-6.839h-6.011v4.032c2.915-0.144,6.154-0.324,9.322-0.504v1.8
			c-5.291,0.396-10.87,0.792-14.398,0.972c-0.071,0.288-0.252,0.432-0.468,0.504l-1.008-2.484c1.224-0.036,2.664-0.108,4.212-0.18
			V64.3c-1.98,1.008-4.067,1.944-6.191,2.664c-0.252-0.504-0.756-1.332-1.152-1.8c6.155-1.98,12.274-5.616,15.299-9.179l3.312,0.144
			c-0.072,0.252-0.36,0.396-0.685,0.432c0.433,0.432,0.937,0.864,1.44,1.296c1.655-0.648,3.312-1.548,4.787-2.7
			c-1.691-1.08-3.42-2.088-5.003-2.952l1.439-1.368c1.62,0.864,3.42,1.872,5.147,2.916c1.26-1.188,2.304-2.592,3.06-4.14h-10.115
			V47.67h11.339l0.432-0.108l1.404,0.612c-0.036,0.18-0.18,0.288-0.288,0.396c-0.864,2.448-2.268,4.572-3.995,6.335
			c2.231,1.439,4.247,2.916,5.615,4.139c-0.181,0.144-0.396,0.36-1.584,1.584c-1.332-1.224-3.348-2.736-5.615-4.248
			c-1.44,1.152-3.023,2.16-4.68,2.916c3.527,2.34,7.991,4.355,11.986,5.436c-0.468,0.504-0.972,1.368-1.296,1.98
			c-3.671-1.188-7.811-3.096-11.267-5.364V62.5h-8.278v-1.26c-1.44,1.008-3.06,1.98-4.752,2.88h17.926v8.639H696.63z
			 M701.669,65.776h-13.642v1.908h13.642V65.776z M688.027,69.159v1.98h13.642v-1.98H688.027z M698.502,60.952
			c-1.404-0.972-2.7-1.979-3.744-3.023c-0.936,1.008-2.159,2.016-3.527,3.023H698.502z"/>
	</g>
	<g>
		<path fill="#D5D5C0" d="M191.386,109.633v2.071h-5.32v17.444h-2.548v-17.444h-5.348v-2.071H191.386z"/>
		<path fill="#D5D5C0" d="M198.987,114.252c0.83-0.484,1.843-0.728,3.038-0.728v2.632h-0.672c-2.856,0-4.284,1.55-4.284,4.648v8.344
			h-2.548v-15.344h2.548v2.492C197.517,115.419,198.156,114.738,198.987,114.252z"/>
		<path fill="#D5D5C0" d="M204.965,117.29c0.635-1.185,1.507-2.104,2.618-2.758c1.11-0.653,2.347-0.979,3.71-0.979
			c1.344,0,2.51,0.289,3.5,0.868c0.989,0.578,1.727,1.307,2.212,2.184v-2.8h2.576v15.344h-2.576v-2.856
			c-0.504,0.896-1.255,1.639-2.254,2.227s-2.161,0.882-3.486,0.882c-1.363,0-2.595-0.336-3.696-1.008s-1.969-1.614-2.604-2.828
			c-0.635-1.213-0.952-2.595-0.952-4.144C204.013,119.853,204.33,118.476,204.965,117.29z M216.305,118.425
			c-0.467-0.858-1.097-1.517-1.89-1.975c-0.793-0.457-1.666-0.686-2.618-0.686c-0.952,0-1.82,0.224-2.604,0.672
			c-0.784,0.448-1.409,1.102-1.876,1.96s-0.7,1.867-0.7,3.024c0,1.176,0.233,2.197,0.7,3.065s1.092,1.531,1.876,1.988
			c0.784,0.457,1.652,0.686,2.604,0.686c0.952,0,1.825-0.229,2.618-0.686s1.423-1.12,1.89-1.988c0.466-0.868,0.7-1.88,0.7-3.038
			C217.005,120.291,216.771,119.283,216.305,118.425z"/>
		<path fill="#D5D5C0" d="M223.977,110.809c-0.336-0.336-0.504-0.746-0.504-1.232c0-0.485,0.168-0.896,0.504-1.231
			c0.336-0.336,0.746-0.504,1.232-0.504c0.466,0,0.863,0.168,1.19,0.504c0.326,0.336,0.49,0.746,0.49,1.231
			c0,0.486-0.164,0.896-0.49,1.232c-0.327,0.336-0.724,0.504-1.19,0.504C224.723,111.313,224.313,111.145,223.977,110.809z
			 M226.441,113.805v15.344h-2.548v-15.344H226.441z"/>
		<path fill="#D5D5C0" d="M233.889,115.904v9.044c0,0.747,0.158,1.274,0.476,1.582c0.317,0.309,0.868,0.462,1.652,0.462h1.876v2.156
			h-2.296c-1.419,0-2.483-0.326-3.192-0.98c-0.709-0.652-1.064-1.726-1.064-3.22v-9.044h-1.988v-2.1h1.988v-3.864h2.548v3.864h4.004
			v2.1H233.889z"/>
		<path fill="#D5D5C0" d="M254.888,122.429h-12.264c0.093,1.512,0.611,2.692,1.554,3.542c0.942,0.85,2.086,1.273,3.43,1.273
			c1.101,0,2.021-0.256,2.758-0.77s1.255-1.199,1.554-2.059h2.744c-0.411,1.476-1.232,2.675-2.464,3.599
			c-1.232,0.924-2.763,1.386-4.592,1.386c-1.456,0-2.758-0.326-3.906-0.979c-1.148-0.653-2.049-1.582-2.702-2.786
			c-0.654-1.204-0.98-2.6-0.98-4.187c0-1.586,0.317-2.977,0.952-4.172c0.635-1.194,1.526-2.114,2.674-2.758
			c1.148-0.645,2.468-0.966,3.962-0.966c1.456,0,2.744,0.317,3.864,0.952c1.12,0.635,1.983,1.507,2.59,2.617
			c0.606,1.111,0.91,2.366,0.91,3.767C254.972,121.374,254.944,121.888,254.888,122.429z M251.696,117.851
			c-0.43-0.7-1.013-1.232-1.75-1.596c-0.737-0.364-1.554-0.547-2.45-0.547c-1.288,0-2.385,0.411-3.29,1.232
			c-0.906,0.821-1.424,1.96-1.554,3.416h9.688C252.34,119.386,252.125,118.551,251.696,117.851z"/>
		<path fill="#D5D5C0" d="M271.94,113.805v15.344h-2.548v-2.268c-0.485,0.783-1.162,1.396-2.03,1.834
			c-0.868,0.438-1.825,0.657-2.87,0.657c-1.195,0-2.268-0.247-3.22-0.741c-0.952-0.495-1.704-1.236-2.254-2.227
			c-0.551-0.989-0.826-2.193-0.826-3.612v-8.987h2.52v8.651c0,1.513,0.382,2.675,1.148,3.486c0.765,0.813,1.81,1.218,3.136,1.218
			c1.363,0,2.436-0.42,3.22-1.26s1.176-2.063,1.176-3.668v-8.428H271.94z"/>
		<path fill="#D5D5C0" d="M280.718,114.252c0.83-0.484,1.843-0.728,3.038-0.728v2.632h-0.672c-2.856,0-4.284,1.55-4.284,4.648v8.344
			h-2.548v-15.344h2.548v2.492C279.248,115.419,279.887,114.738,280.718,114.252z"/>
		<path fill="#D5D5C0" d="M294.508,114.238c0.858-1.521,2.03-2.711,3.514-3.57c1.484-0.857,3.131-1.287,4.942-1.287
			c2.128,0,3.985,0.514,5.572,1.54c1.586,1.026,2.744,2.482,3.472,4.367h-3.052c-0.542-1.176-1.321-2.081-2.338-2.716
			c-1.018-0.634-2.236-0.952-3.654-0.952c-1.363,0-2.586,0.318-3.668,0.952c-1.083,0.635-1.932,1.536-2.548,2.702
			c-0.616,1.167-0.924,2.534-0.924,4.102c0,1.55,0.308,2.908,0.924,4.074c0.616,1.167,1.465,2.067,2.548,2.702
			s2.305,0.952,3.668,0.952c1.418,0,2.636-0.313,3.654-0.938c1.017-0.625,1.796-1.525,2.338-2.701h3.052
			c-0.728,1.866-1.886,3.309-3.472,4.325c-1.587,1.018-3.444,1.526-5.572,1.526c-1.811,0-3.458-0.425-4.942-1.274
			c-1.484-0.849-2.655-2.029-3.514-3.542c-0.859-1.512-1.288-3.22-1.288-5.124C293.22,117.473,293.649,115.76,294.508,114.238z"/>
		<path fill="#D5D5C0" d="M326.54,114.267c0.933,0.495,1.666,1.236,2.198,2.226c0.532,0.99,0.798,2.194,0.798,3.612v9.044h-2.52
			v-8.68c0-1.53-0.383-2.702-1.148-3.515c-0.766-0.812-1.811-1.218-3.136-1.218c-1.344,0-2.413,0.42-3.206,1.26
			c-0.793,0.841-1.19,2.063-1.19,3.668v8.484h-2.548v-20.72h2.548v7.56c0.504-0.784,1.199-1.391,2.086-1.82
			c0.886-0.429,1.88-0.644,2.982-0.644C324.561,113.524,325.606,113.772,326.54,114.267z"/>
		<path fill="#D5D5C0" d="M333.792,110.809c-0.336-0.336-0.504-0.746-0.504-1.232c0-0.485,0.168-0.896,0.504-1.231
			c0.336-0.336,0.746-0.504,1.232-0.504c0.466,0,0.863,0.168,1.19,0.504c0.326,0.336,0.49,0.746,0.49,1.231
			c0,0.486-0.164,0.896-0.49,1.232c-0.327,0.336-0.724,0.504-1.19,0.504C334.538,111.313,334.127,111.145,333.792,110.809z
			 M336.255,113.805v15.344h-2.548v-15.344H336.255z"/>
		<path fill="#D5D5C0" d="M352.607,115.219c1.156,1.129,1.736,2.758,1.736,4.886v9.044h-2.521v-8.68c0-1.53-0.383-2.702-1.146-3.515
			c-0.767-0.812-1.812-1.218-3.137-1.218c-1.344,0-2.413,0.42-3.206,1.26c-0.793,0.841-1.19,2.063-1.19,3.668v8.484h-2.548v-15.344
			h2.548v2.184c0.504-0.784,1.19-1.391,2.058-1.82c0.868-0.429,1.824-0.644,2.87-0.644
			C349.938,113.524,351.449,114.089,352.607,115.219z"/>
		<path fill="#D5D5C0" d="M361.302,128.421c-1.167-0.653-2.082-1.582-2.744-2.786c-0.663-1.204-0.994-2.6-0.994-4.187
			c0-1.567,0.34-2.954,1.021-4.158c0.682-1.203,1.61-2.128,2.786-2.771c1.177-0.645,2.492-0.966,3.948-0.966
			s2.772,0.321,3.948,0.966c1.176,0.644,2.104,1.563,2.786,2.758c0.681,1.195,1.021,2.586,1.021,4.172
			c0,1.587-0.35,2.982-1.05,4.187s-1.647,2.133-2.842,2.786c-1.195,0.653-2.521,0.979-3.977,0.979
			C363.77,129.4,362.468,129.074,361.302,128.421z M367.783,126.517c0.803-0.43,1.451-1.073,1.946-1.933
			c0.494-0.858,0.742-1.903,0.742-3.136c0-1.231-0.243-2.277-0.729-3.136s-1.12-1.498-1.903-1.918
			c-0.784-0.42-1.634-0.63-2.549-0.63c-0.934,0-1.787,0.21-2.562,0.63c-0.775,0.42-1.396,1.06-1.862,1.918s-0.7,1.904-0.7,3.136
			c0,1.251,0.229,2.306,0.687,3.164c0.457,0.859,1.068,1.498,1.834,1.918c0.765,0.42,1.605,0.63,2.52,0.63
			C366.122,127.16,366.98,126.946,367.783,126.517z"/>
		<path fill="#D5D5C0" d="M376.52,110.809c-0.336-0.336-0.504-0.746-0.504-1.232c0-0.485,0.168-0.896,0.504-1.231
			s0.746-0.504,1.231-0.504c0.467,0,0.863,0.168,1.19,0.504c0.326,0.336,0.49,0.746,0.49,1.231c0,0.486-0.164,0.896-0.49,1.232
			c-0.327,0.336-0.724,0.504-1.19,0.504C377.266,111.313,376.855,111.145,376.52,110.809z M378.983,113.805v15.344h-2.548v-15.344
			H378.983z"/>
		<path fill="#D5D5C0" d="M385.591,128.799c-0.934-0.401-1.671-0.962-2.212-1.681c-0.542-0.718-0.84-1.544-0.896-2.478h2.632
			c0.074,0.766,0.434,1.391,1.078,1.876c0.644,0.485,1.488,0.728,2.533,0.728c0.971,0,1.736-0.214,2.297-0.644
			c0.56-0.43,0.84-0.971,0.84-1.624c0-0.672-0.299-1.171-0.896-1.498c-0.598-0.326-1.521-0.648-2.771-0.966
			c-1.139-0.299-2.068-0.603-2.786-0.91c-0.719-0.308-1.335-0.766-1.849-1.372c-0.513-0.606-0.77-1.404-0.77-2.394
			c0-0.784,0.233-1.503,0.7-2.156c0.466-0.653,1.129-1.172,1.987-1.555c0.858-0.382,1.839-0.573,2.94-0.573
			c1.698,0,3.07,0.43,4.116,1.288c1.045,0.858,1.605,2.034,1.68,3.527h-2.548c-0.056-0.802-0.378-1.446-0.966-1.932
			s-1.377-0.729-2.366-0.729c-0.915,0-1.643,0.196-2.184,0.589c-0.542,0.392-0.813,0.905-0.813,1.54c0,0.504,0.163,0.919,0.49,1.245
			c0.326,0.327,0.737,0.589,1.231,0.784c0.495,0.196,1.181,0.416,2.059,0.658c1.101,0.299,1.997,0.593,2.688,0.882
			c0.69,0.29,1.283,0.724,1.778,1.302c0.494,0.579,0.751,1.335,0.771,2.269c0,0.84-0.234,1.596-0.7,2.268
			c-0.467,0.672-1.125,1.2-1.975,1.582c-0.85,0.383-1.824,0.574-2.926,0.574C387.579,129.4,386.524,129.199,385.591,128.799z"/>
		<path fill="#D5D5C0" d="M405.414,117.29c0.634-1.185,1.507-2.104,2.618-2.758c1.11-0.653,2.347-0.979,3.71-0.979
			c1.344,0,2.51,0.289,3.5,0.868c0.989,0.578,1.726,1.307,2.212,2.184v-2.8h2.576v15.344h-2.576v-2.856
			c-0.504,0.896-1.256,1.639-2.254,2.227c-0.999,0.588-2.161,0.882-3.486,0.882c-1.363,0-2.595-0.336-3.696-1.008
			s-1.97-1.614-2.604-2.828c-0.635-1.213-0.952-2.595-0.952-4.144C404.462,119.853,404.779,118.476,405.414,117.29z
			 M416.754,118.425c-0.467-0.858-1.097-1.517-1.89-1.975c-0.794-0.457-1.666-0.686-2.618-0.686s-1.82,0.224-2.604,0.672
			s-1.409,1.102-1.876,1.96s-0.7,1.867-0.7,3.024c0,1.176,0.233,2.197,0.7,3.065s1.092,1.531,1.876,1.988s1.652,0.686,2.604,0.686
			s1.824-0.229,2.618-0.686c0.793-0.457,1.423-1.12,1.89-1.988c0.466-0.868,0.7-1.88,0.7-3.038
			C417.454,120.291,417.22,119.283,416.754,118.425z M415.466,110.752v1.904l-5.964-3.191v-2.213L415.466,110.752z"/>
		<path fill="#D5D5C0" d="M456.346,109.633l-5.655,19.516h-2.856l-4.536-15.708l-4.704,15.708l-2.828,0.028l-5.46-19.544h2.717
			l4.256,16.548l4.704-16.548h2.855l4.48,16.491l4.284-16.491H456.346z"/>
		<path fill="#D5D5C0" d="M459.146,117.29c0.634-1.185,1.507-2.104,2.618-2.758c1.11-0.653,2.347-0.979,3.71-0.979
			c1.344,0,2.51,0.289,3.5,0.868c0.989,0.578,1.726,1.307,2.212,2.184v-2.8h2.576v15.344h-2.576v-2.856
			c-0.504,0.896-1.256,1.639-2.254,2.227c-0.999,0.588-2.161,0.882-3.486,0.882c-1.363,0-2.595-0.336-3.696-1.008
			s-1.97-1.614-2.604-2.828c-0.635-1.213-0.952-2.595-0.952-4.144C458.194,119.853,458.512,118.476,459.146,117.29z
			 M470.486,118.425c-0.467-0.858-1.097-1.517-1.89-1.975c-0.794-0.457-1.666-0.686-2.618-0.686s-1.82,0.224-2.604,0.672
			s-1.409,1.102-1.876,1.96s-0.7,1.867-0.7,3.024c0,1.176,0.233,2.197,0.7,3.065s1.092,1.531,1.876,1.988s1.652,0.686,2.604,0.686
			s1.824-0.229,2.618-0.686c0.793-0.457,1.423-1.12,1.89-1.988c0.466-0.868,0.7-1.88,0.7-3.038
			C471.187,120.291,470.952,119.283,470.486,118.425z"/>
		<path fill="#D5D5C0" d="M483.786,126.797l4.76-12.992h2.716l-6.02,15.344h-2.968l-6.021-15.344h2.744L483.786,126.797z"/>
		<path fill="#D5D5C0" d="M498.248,114.252c0.83-0.484,1.843-0.728,3.038-0.728v2.632h-0.672c-2.856,0-4.284,1.55-4.284,4.648v8.344
			h-2.548v-15.344h2.548v2.492C496.778,115.419,497.417,114.738,498.248,114.252z"/>
		<path fill="#D5D5C0" d="M518.142,122.429h-12.265c0.094,1.512,0.611,2.692,1.555,3.542c0.942,0.85,2.086,1.273,3.43,1.273
			c1.102,0,2.021-0.256,2.758-0.77s1.256-1.199,1.554-2.059h2.744c-0.41,1.476-1.231,2.675-2.464,3.599
			c-1.231,0.924-2.763,1.386-4.592,1.386c-1.456,0-2.758-0.326-3.906-0.979c-1.147-0.653-2.049-1.582-2.702-2.786
			s-0.979-2.6-0.979-4.187c0-1.586,0.317-2.977,0.952-4.172c0.634-1.194,1.525-2.114,2.674-2.758
			c1.147-0.645,2.469-0.966,3.962-0.966c1.456,0,2.744,0.317,3.864,0.952s1.983,1.507,2.59,2.617c0.606,1.111,0.91,2.366,0.91,3.767
			C518.226,121.374,518.197,121.888,518.142,122.429z M514.949,117.851c-0.43-0.7-1.013-1.232-1.75-1.596
			c-0.737-0.364-1.554-0.547-2.45-0.547c-1.288,0-2.385,0.411-3.29,1.232s-1.423,1.96-1.554,3.416h9.688
			C515.594,119.386,515.379,118.551,514.949,117.851z"/>
	</g>
</g>
</svg>
