<?xml version="1.0" encoding="utf-8"?>
<!-- Generator: Adobe Illustrator 16.0.0, SVG Export Plug-In . SVG Version: 6.00 Build 0)  -->
<!DOCTYPE svg PUBLIC "-//W3C//DTD SVG 1.1//EN" "http://www.w3.org/Graphics/SVG/1.1/DTD/svg11.dtd">
<svg version="1.1" id="Calque_1" xmlns="http://www.w3.org/2000/svg" xmlns:xlink="http://www.w3.org/1999/xlink" x="0px" y="0px"
	 width="28px" height="28px" viewBox="0 0 28 28" enable-background="new 0 0 28 28" xml:space="preserve">
<path fill="#D9D9C3" d="M20.442,16.938l-2.762-0.575c1.404-1.727,2.247-3.934,2.247-6.338C19.926,4.488,15.465,0,9.963,0
	C4.461,0,0,4.488,0,10.025c0,5.535,4.461,10.023,9.963,10.023c2.271,0,4.359-0.773,6.035-2.062l0.665,2.581L24.564,28L28,24.716
	L20.442,16.938z M9.963,17.371c-4.032,0-7.301-3.29-7.301-7.346c0-4.057,3.269-7.346,7.301-7.346c4.031,0,7.3,3.289,7.3,7.346
	C17.264,14.081,13.995,17.371,9.963,17.371z"/>
</svg>
